<svg xmlns="http://www.w3.org/2000/svg" width="144" height="144" viewBox="0 0 144 144">
    <g id="ticks" stroke-width="4" stroke="#EFEFEF">
        <line x1="72" y1="10" x2="72" y2="25"></line>
        <line x1="72" y1="10" x2="72" y2="25" transform="rotate(30, 72, 72)"></line>
        <line x1="72" y1="10" x2="72" y2="25" transform="rotate(60, 72, 72)"></line>
        <line x1="72" y1="10" x2="72" y2="25" transform="rotate(90, 72, 72)"></line>
        <line x1="72" y1="10" x2="72" y2="25" transform="rotate(120, 72, 72)"></line>
        <line x1="72" y1="10" x2="72" y2="25" transform="rotate(150, 72, 72)"></line>
        <line x1="72" y1="10" x2="72" y2="25" transform="rotate(180, 72, 72)"></line>
        <line x1="72" y1="10" x2="72" y2="25" transform="rotate(210, 72, 72)"></line>
        <line x1="72" y1="10" x2="72" y2="25" transform="rotate(240, 72, 72)"></line>
        <line x1="72" y1="10" x2="72" y2="25" transform="rotate(270, 72, 72)"></line>
        <line x1="72" y1="10" x2="72" y2="25" transform="rotate(300, 72, 72)"></line>
        <line x1="72" y1="10" x2="72" y2="25" transform="rotate(330, 72, 72)"></line>
    </g>
    <g stroke="#DDDDDD">
        <circle cx="72" cy="72" r="4" fill="#DDDDDD" />
        <line id="hours" x1="72" y1="40" x2="72" y2="67" stroke-width="5" transform="rotate(290, 72, 72)"></line>
        <line id="minutes" x1="72" y1="30" x2="72" y2="67" stroke-width="4" transform="rotate(160, 72, 72)"></line>
        <line id="seconds" x1="72" y1="20" x2="72" y2="67" stroke-width="3" transform="rotate(190, 72, 72)"></line>
    </g>
</svg>